<mxfile host="app.diagrams.net" modified="2022-07-07T02:39:36.501Z" agent="5.0 (Windows NT 10.0; Win64; x64) AppleWebKit/537.36 (KHTML, like Gecko) Chrome/102.0.5005.115 Safari/537.36 OPR/88.0.4412.53" etag="RTzeAO_JfCfiZ77AJuuX" version="20.0.4" type="github" pages="3">
  <diagram id="Zey3VQpnDwlAwN-0-qrT" name="分階段上線">
    <mxGraphModel dx="2872" dy="1147" grid="0" gridSize="10" guides="1" tooltips="1" connect="1" arrows="1" fold="1" page="1" pageScale="1" pageWidth="850" pageHeight="1100" math="0" shadow="0">
      <root>
        <mxCell id="0" />
        <mxCell id="1" parent="0" />
        <mxCell id="IfIdbq2qk3d2WDwHGiJF-1" value="Mindmap" style="swimlane;startSize=20;horizontal=1;containerType=tree;fontSize=20;" parent="1" vertex="1">
          <mxGeometry x="-33" y="76" width="1942" height="740" as="geometry">
            <mxRectangle x="440" y="100" width="90" height="30" as="alternateBounds" />
          </mxGeometry>
        </mxCell>
        <mxCell id="IfIdbq2qk3d2WDwHGiJF-2" value="" style="edgeStyle=entityRelationEdgeStyle;startArrow=none;endArrow=none;segment=10;curved=1;rounded=0;fontSize=20;" parent="IfIdbq2qk3d2WDwHGiJF-1" source="IfIdbq2qk3d2WDwHGiJF-6" target="IfIdbq2qk3d2WDwHGiJF-7" edge="1">
          <mxGeometry relative="1" as="geometry" />
        </mxCell>
        <mxCell id="IfIdbq2qk3d2WDwHGiJF-4" value="" style="edgeStyle=entityRelationEdgeStyle;startArrow=none;endArrow=none;segment=10;curved=1;rounded=0;fontSize=20;" parent="IfIdbq2qk3d2WDwHGiJF-1" source="IfIdbq2qk3d2WDwHGiJF-6" target="IfIdbq2qk3d2WDwHGiJF-9" edge="1">
          <mxGeometry relative="1" as="geometry" />
        </mxCell>
        <mxCell id="IfIdbq2qk3d2WDwHGiJF-6" value="MES分階段" style="ellipse;whiteSpace=wrap;html=1;align=center;treeFolding=1;treeMoving=1;newEdgeStyle={&quot;edgeStyle&quot;:&quot;entityRelationEdgeStyle&quot;,&quot;startArrow&quot;:&quot;none&quot;,&quot;endArrow&quot;:&quot;none&quot;,&quot;segment&quot;:10,&quot;curved&quot;:1};fontSize=20;" parent="IfIdbq2qk3d2WDwHGiJF-1" vertex="1">
          <mxGeometry x="765" y="195" width="121" height="40" as="geometry" />
        </mxCell>
        <mxCell id="IfIdbq2qk3d2WDwHGiJF-7" value="By 產品/工單" style="whiteSpace=wrap;html=1;rounded=1;arcSize=50;align=center;verticalAlign=middle;strokeWidth=1;autosize=1;spacing=4;treeFolding=1;treeMoving=1;newEdgeStyle={&quot;edgeStyle&quot;:&quot;entityRelationEdgeStyle&quot;,&quot;startArrow&quot;:&quot;none&quot;,&quot;endArrow&quot;:&quot;none&quot;,&quot;segment&quot;:10,&quot;curved&quot;:1};fontSize=20;" parent="IfIdbq2qk3d2WDwHGiJF-1" vertex="1">
          <mxGeometry x="954" y="196" width="153" height="40" as="geometry" />
        </mxCell>
        <mxCell id="IfIdbq2qk3d2WDwHGiJF-9" value="By 製程前後" style="whiteSpace=wrap;html=1;rounded=1;arcSize=50;align=center;verticalAlign=middle;strokeWidth=1;autosize=1;spacing=4;treeFolding=1;treeMoving=1;newEdgeStyle={&quot;edgeStyle&quot;:&quot;entityRelationEdgeStyle&quot;,&quot;startArrow&quot;:&quot;none&quot;,&quot;endArrow&quot;:&quot;none&quot;,&quot;segment&quot;:10,&quot;curved&quot;:1};fontSize=20;" parent="IfIdbq2qk3d2WDwHGiJF-1" vertex="1">
          <mxGeometry x="527" y="196" width="148" height="40" as="geometry" />
        </mxCell>
        <mxCell id="IfIdbq2qk3d2WDwHGiJF-25" value="" style="edgeStyle=entityRelationEdgeStyle;startArrow=none;endArrow=none;segment=10;curved=1;rounded=0;fontSize=20;exitX=0;exitY=0.25;exitDx=0;exitDy=0;" parent="IfIdbq2qk3d2WDwHGiJF-1" source="bXxEzL99A_dHbq3SvikL-6" target="IfIdbq2qk3d2WDwHGiJF-26" edge="1">
          <mxGeometry relative="1" as="geometry">
            <mxPoint x="760" y="205" as="sourcePoint" />
          </mxGeometry>
        </mxCell>
        <mxCell id="IfIdbq2qk3d2WDwHGiJF-26" value="MES負責SMT, Depanel,&lt;br style=&quot;font-size: 20px;&quot;&gt;KF負責Intel Testing" style="whiteSpace=wrap;html=1;rounded=1;arcSize=50;align=center;verticalAlign=middle;strokeWidth=1;autosize=1;spacing=4;treeFolding=1;treeMoving=1;newEdgeStyle={&quot;edgeStyle&quot;:&quot;entityRelationEdgeStyle&quot;,&quot;startArrow&quot;:&quot;none&quot;,&quot;endArrow&quot;:&quot;none&quot;,&quot;segment&quot;:10,&quot;curved&quot;:1};fontSize=20;" parent="IfIdbq2qk3d2WDwHGiJF-1" vertex="1">
          <mxGeometry x="70" y="45" width="254" height="64" as="geometry" />
        </mxCell>
        <mxCell id="8_xVBubNyaA-1uuNmKV7-1" value="" style="edgeStyle=entityRelationEdgeStyle;startArrow=none;endArrow=none;segment=10;curved=1;rounded=0;fontSize=20;" parent="IfIdbq2qk3d2WDwHGiJF-1" source="bXxEzL99A_dHbq3SvikL-12" target="8_xVBubNyaA-1uuNmKV7-2" edge="1">
          <mxGeometry relative="1" as="geometry">
            <mxPoint x="804" y="272" as="sourcePoint" />
          </mxGeometry>
        </mxCell>
        <mxCell id="8_xVBubNyaA-1uuNmKV7-2" value="MES 在Testing 階段須回到 KF" style="whiteSpace=wrap;html=1;rounded=1;arcSize=50;align=center;verticalAlign=middle;strokeWidth=1;autosize=1;spacing=4;treeFolding=1;treeMoving=1;newEdgeStyle={&quot;edgeStyle&quot;:&quot;entityRelationEdgeStyle&quot;,&quot;startArrow&quot;:&quot;none&quot;,&quot;endArrow&quot;:&quot;none&quot;,&quot;segment&quot;:10,&quot;curved&quot;:1};fontSize=20;" parent="IfIdbq2qk3d2WDwHGiJF-1" vertex="1">
          <mxGeometry x="62" y="229" width="308" height="40" as="geometry" />
        </mxCell>
        <mxCell id="8_xVBubNyaA-1uuNmKV7-3" value="" style="edgeStyle=entityRelationEdgeStyle;startArrow=none;endArrow=none;segment=10;curved=1;rounded=0;fontSize=20;" parent="IfIdbq2qk3d2WDwHGiJF-1" source="IfIdbq2qk3d2WDwHGiJF-7" target="8_xVBubNyaA-1uuNmKV7-4" edge="1">
          <mxGeometry relative="1" as="geometry">
            <mxPoint x="847" y="285" as="sourcePoint" />
          </mxGeometry>
        </mxCell>
        <mxCell id="8_xVBubNyaA-1uuNmKV7-4" value="Pros" style="whiteSpace=wrap;html=1;rounded=1;arcSize=50;align=center;verticalAlign=middle;strokeWidth=1;autosize=1;spacing=4;treeFolding=1;treeMoving=1;newEdgeStyle={&quot;edgeStyle&quot;:&quot;entityRelationEdgeStyle&quot;,&quot;startArrow&quot;:&quot;none&quot;,&quot;endArrow&quot;:&quot;none&quot;,&quot;segment&quot;:10,&quot;curved&quot;:1};fontSize=20;" parent="IfIdbq2qk3d2WDwHGiJF-1" vertex="1">
          <mxGeometry x="1173" y="131" width="80" height="40" as="geometry" />
        </mxCell>
        <mxCell id="8_xVBubNyaA-1uuNmKV7-5" value="" style="edgeStyle=entityRelationEdgeStyle;startArrow=none;endArrow=none;segment=10;curved=1;rounded=0;fontSize=20;" parent="IfIdbq2qk3d2WDwHGiJF-1" source="8_xVBubNyaA-1uuNmKV7-4" target="8_xVBubNyaA-1uuNmKV7-6" edge="1">
          <mxGeometry relative="1" as="geometry">
            <mxPoint x="1082" y="285" as="sourcePoint" />
          </mxGeometry>
        </mxCell>
        <mxCell id="8_xVBubNyaA-1uuNmKV7-6" value="可與KF同時並行,互不影響" style="whiteSpace=wrap;html=1;rounded=1;arcSize=50;align=center;verticalAlign=middle;strokeWidth=1;autosize=1;spacing=4;treeFolding=1;treeMoving=1;newEdgeStyle={&quot;edgeStyle&quot;:&quot;entityRelationEdgeStyle&quot;,&quot;startArrow&quot;:&quot;none&quot;,&quot;endArrow&quot;:&quot;none&quot;,&quot;segment&quot;:10,&quot;curved&quot;:1};fontSize=20;" parent="IfIdbq2qk3d2WDwHGiJF-1" vertex="1">
          <mxGeometry x="1288" y="71" width="270" height="40" as="geometry" />
        </mxCell>
        <mxCell id="8_xVBubNyaA-1uuNmKV7-26" value="" style="edgeStyle=entityRelationEdgeStyle;startArrow=none;endArrow=none;segment=10;curved=1;rounded=0;fontSize=20;" parent="IfIdbq2qk3d2WDwHGiJF-1" source="8_xVBubNyaA-1uuNmKV7-4" target="8_xVBubNyaA-1uuNmKV7-27" edge="1">
          <mxGeometry relative="1" as="geometry">
            <mxPoint x="1082" y="285" as="sourcePoint" />
          </mxGeometry>
        </mxCell>
        <mxCell id="8_xVBubNyaA-1uuNmKV7-27" value="不須與KF進行資料交換，只需和JDE、報表做資料交換" style="whiteSpace=wrap;html=1;rounded=1;arcSize=50;align=center;verticalAlign=middle;strokeWidth=1;autosize=1;spacing=4;treeFolding=1;treeMoving=1;newEdgeStyle={&quot;edgeStyle&quot;:&quot;entityRelationEdgeStyle&quot;,&quot;startArrow&quot;:&quot;none&quot;,&quot;endArrow&quot;:&quot;none&quot;,&quot;segment&quot;:10,&quot;curved&quot;:1};fontSize=20;" parent="IfIdbq2qk3d2WDwHGiJF-1" vertex="1">
          <mxGeometry x="1288" y="140" width="522" height="40" as="geometry" />
        </mxCell>
        <mxCell id="8_xVBubNyaA-1uuNmKV7-28" value="" style="edgeStyle=entityRelationEdgeStyle;startArrow=none;endArrow=none;segment=10;curved=1;rounded=0;fontSize=20;" parent="IfIdbq2qk3d2WDwHGiJF-1" source="IfIdbq2qk3d2WDwHGiJF-7" target="8_xVBubNyaA-1uuNmKV7-29" edge="1">
          <mxGeometry relative="1" as="geometry">
            <mxPoint x="847" y="285" as="sourcePoint" />
          </mxGeometry>
        </mxCell>
        <mxCell id="8_xVBubNyaA-1uuNmKV7-29" value="Cons" style="whiteSpace=wrap;html=1;rounded=1;arcSize=50;align=center;verticalAlign=middle;strokeWidth=1;autosize=1;spacing=4;treeFolding=1;treeMoving=1;newEdgeStyle={&quot;edgeStyle&quot;:&quot;entityRelationEdgeStyle&quot;,&quot;startArrow&quot;:&quot;none&quot;,&quot;endArrow&quot;:&quot;none&quot;,&quot;segment&quot;:10,&quot;curved&quot;:1};fontSize=20;" parent="IfIdbq2qk3d2WDwHGiJF-1" vertex="1">
          <mxGeometry x="1179" y="273" width="86" height="40" as="geometry" />
        </mxCell>
        <mxCell id="8_xVBubNyaA-1uuNmKV7-30" value="" style="edgeStyle=entityRelationEdgeStyle;startArrow=none;endArrow=none;segment=10;curved=1;rounded=0;fontSize=20;" parent="IfIdbq2qk3d2WDwHGiJF-1" source="8_xVBubNyaA-1uuNmKV7-29" target="8_xVBubNyaA-1uuNmKV7-31" edge="1">
          <mxGeometry relative="1" as="geometry">
            <mxPoint x="1082" y="285" as="sourcePoint" />
          </mxGeometry>
        </mxCell>
        <mxCell id="8_xVBubNyaA-1uuNmKV7-31" value="產線是否可執行" style="whiteSpace=wrap;html=1;rounded=1;arcSize=50;align=center;verticalAlign=middle;strokeWidth=1;autosize=1;spacing=4;treeFolding=1;treeMoving=1;newEdgeStyle={&quot;edgeStyle&quot;:&quot;entityRelationEdgeStyle&quot;,&quot;startArrow&quot;:&quot;none&quot;,&quot;endArrow&quot;:&quot;none&quot;,&quot;segment&quot;:10,&quot;curved&quot;:1};fontSize=20;" parent="IfIdbq2qk3d2WDwHGiJF-1" vertex="1">
          <mxGeometry x="1300" y="239" width="179" height="40" as="geometry" />
        </mxCell>
        <mxCell id="bXxEzL99A_dHbq3SvikL-1" value="" style="edgeStyle=entityRelationEdgeStyle;startArrow=none;endArrow=none;segment=10;curved=1;rounded=0;fontSize=20;" parent="IfIdbq2qk3d2WDwHGiJF-1" source="8_xVBubNyaA-1uuNmKV7-31" target="bXxEzL99A_dHbq3SvikL-2" edge="1">
          <mxGeometry relative="1" as="geometry">
            <mxPoint x="1240" y="334" as="sourcePoint" />
          </mxGeometry>
        </mxCell>
        <mxCell id="bXxEzL99A_dHbq3SvikL-2" value="可否由工單來分" style="whiteSpace=wrap;html=1;rounded=1;arcSize=50;align=center;verticalAlign=middle;strokeWidth=1;autosize=1;spacing=4;treeFolding=1;treeMoving=1;newEdgeStyle={&quot;edgeStyle&quot;:&quot;entityRelationEdgeStyle&quot;,&quot;startArrow&quot;:&quot;none&quot;,&quot;endArrow&quot;:&quot;none&quot;,&quot;segment&quot;:10,&quot;curved&quot;:1};fontSize=20;" parent="IfIdbq2qk3d2WDwHGiJF-1" vertex="1">
          <mxGeometry x="1503" y="205" width="179" height="40" as="geometry" />
        </mxCell>
        <mxCell id="bXxEzL99A_dHbq3SvikL-5" value="" style="edgeStyle=entityRelationEdgeStyle;startArrow=none;endArrow=none;segment=10;curved=1;rounded=0;fontSize=20;" parent="IfIdbq2qk3d2WDwHGiJF-1" source="IfIdbq2qk3d2WDwHGiJF-9" target="bXxEzL99A_dHbq3SvikL-6" edge="1">
          <mxGeometry relative="1" as="geometry">
            <mxPoint x="747" y="284.9999999999998" as="sourcePoint" />
          </mxGeometry>
        </mxCell>
        <mxCell id="bXxEzL99A_dHbq3SvikL-6" value="Pros" style="whiteSpace=wrap;html=1;rounded=1;arcSize=50;align=center;verticalAlign=middle;strokeWidth=1;autosize=1;spacing=4;treeFolding=1;treeMoving=1;newEdgeStyle={&quot;edgeStyle&quot;:&quot;entityRelationEdgeStyle&quot;,&quot;startArrow&quot;:&quot;none&quot;,&quot;endArrow&quot;:&quot;none&quot;,&quot;segment&quot;:10,&quot;curved&quot;:1};fontSize=20;" parent="IfIdbq2qk3d2WDwHGiJF-1" vertex="1">
          <mxGeometry x="423" y="121.99999999999977" width="80" height="40" as="geometry" />
        </mxCell>
        <mxCell id="bXxEzL99A_dHbq3SvikL-11" value="" style="edgeStyle=entityRelationEdgeStyle;startArrow=none;endArrow=none;segment=10;curved=1;rounded=0;fontSize=20;" parent="IfIdbq2qk3d2WDwHGiJF-1" source="IfIdbq2qk3d2WDwHGiJF-9" target="bXxEzL99A_dHbq3SvikL-12" edge="1">
          <mxGeometry relative="1" as="geometry">
            <mxPoint x="747" y="284.9999999999998" as="sourcePoint" />
          </mxGeometry>
        </mxCell>
        <mxCell id="bXxEzL99A_dHbq3SvikL-12" value="Cons" style="whiteSpace=wrap;html=1;rounded=1;arcSize=50;align=center;verticalAlign=middle;strokeWidth=1;autosize=1;spacing=4;treeFolding=1;treeMoving=1;newEdgeStyle={&quot;edgeStyle&quot;:&quot;entityRelationEdgeStyle&quot;,&quot;startArrow&quot;:&quot;none&quot;,&quot;endArrow&quot;:&quot;none&quot;,&quot;segment&quot;:10,&quot;curved&quot;:1};fontSize=20;" parent="IfIdbq2qk3d2WDwHGiJF-1" vertex="1">
          <mxGeometry x="420.5" y="272.99999999999955" width="86" height="40" as="geometry" />
        </mxCell>
        <mxCell id="bXxEzL99A_dHbq3SvikL-13" value="" style="edgeStyle=entityRelationEdgeStyle;startArrow=none;endArrow=none;segment=10;curved=1;rounded=0;fontSize=20;" parent="IfIdbq2qk3d2WDwHGiJF-1" source="bXxEzL99A_dHbq3SvikL-12" target="bXxEzL99A_dHbq3SvikL-14" edge="1">
          <mxGeometry relative="1" as="geometry">
            <mxPoint x="497" y="291" as="sourcePoint" />
          </mxGeometry>
        </mxCell>
        <mxCell id="bXxEzL99A_dHbq3SvikL-14" value="MES Routing 是否可與KF對應" style="whiteSpace=wrap;html=1;rounded=1;arcSize=50;align=center;verticalAlign=middle;strokeWidth=1;autosize=1;spacing=4;treeFolding=1;treeMoving=1;newEdgeStyle={&quot;edgeStyle&quot;:&quot;entityRelationEdgeStyle&quot;,&quot;startArrow&quot;:&quot;none&quot;,&quot;endArrow&quot;:&quot;none&quot;,&quot;segment&quot;:10,&quot;curved&quot;:1};fontSize=20;" parent="IfIdbq2qk3d2WDwHGiJF-1" vertex="1">
          <mxGeometry x="62" y="303" width="308" height="40" as="geometry" />
        </mxCell>
      </root>
    </mxGraphModel>
  </diagram>
  <diagram id="NJayMdJroYNxtHJ9OtRV" name="Routing討論">
    <mxGraphModel dx="2022" dy="1147" grid="1" gridSize="10" guides="1" tooltips="1" connect="1" arrows="1" fold="1" page="1" pageScale="1" pageWidth="850" pageHeight="1100" math="0" shadow="0">
      <root>
        <mxCell id="0" />
        <mxCell id="1" parent="0" />
      </root>
    </mxGraphModel>
  </diagram>
  <diagram id="smstUBQ7BI0cWxJo8JmR" name="KF to MES routing mapping">
    <mxGraphModel dx="1026" dy="750" grid="1" gridSize="10" guides="1" tooltips="1" connect="1" arrows="1" fold="1" page="1" pageScale="1" pageWidth="850" pageHeight="1100" math="0" shadow="0">
      <root>
        <mxCell id="0" />
        <mxCell id="1" parent="0" />
        <mxCell id="0156MINf_T01JMAZHBBm-13" value="" style="edgeStyle=orthogonalEdgeStyle;rounded=0;orthogonalLoop=1;jettySize=auto;html=1;fontSize=25;" edge="1" parent="1" source="0156MINf_T01JMAZHBBm-1" target="0156MINf_T01JMAZHBBm-2">
          <mxGeometry relative="1" as="geometry" />
        </mxCell>
        <mxCell id="0156MINf_T01JMAZHBBm-1" value="Step 1" style="ellipse;whiteSpace=wrap;html=1;aspect=fixed;" vertex="1" parent="1">
          <mxGeometry x="40" y="80" width="80" height="80" as="geometry" />
        </mxCell>
        <mxCell id="0156MINf_T01JMAZHBBm-2" value="Step 2" style="ellipse;whiteSpace=wrap;html=1;aspect=fixed;" vertex="1" parent="1">
          <mxGeometry x="200" y="80" width="80" height="80" as="geometry" />
        </mxCell>
        <mxCell id="0156MINf_T01JMAZHBBm-3" value="Step 4" style="ellipse;whiteSpace=wrap;html=1;aspect=fixed;" vertex="1" parent="1">
          <mxGeometry x="360" y="160" width="80" height="80" as="geometry" />
        </mxCell>
        <mxCell id="0156MINf_T01JMAZHBBm-5" value="KF" style="text;html=1;strokeColor=none;fillColor=none;align=center;verticalAlign=middle;whiteSpace=wrap;rounded=0;fontSize=25;" vertex="1" parent="1">
          <mxGeometry x="28" y="40" width="60" height="30" as="geometry" />
        </mxCell>
        <mxCell id="0156MINf_T01JMAZHBBm-6" value="MES" style="text;html=1;strokeColor=none;fillColor=none;align=center;verticalAlign=middle;whiteSpace=wrap;rounded=0;fontSize=25;" vertex="1" parent="1">
          <mxGeometry x="40" y="280" width="60" height="30" as="geometry" />
        </mxCell>
        <mxCell id="0156MINf_T01JMAZHBBm-15" value="" style="edgeStyle=orthogonalEdgeStyle;rounded=0;orthogonalLoop=1;jettySize=auto;html=1;fontSize=25;" edge="1" parent="1" source="0156MINf_T01JMAZHBBm-7" target="0156MINf_T01JMAZHBBm-8">
          <mxGeometry relative="1" as="geometry" />
        </mxCell>
        <mxCell id="0156MINf_T01JMAZHBBm-7" value="Step 1-1" style="ellipse;whiteSpace=wrap;html=1;aspect=fixed;" vertex="1" parent="1">
          <mxGeometry x="40" y="320" width="80" height="80" as="geometry" />
        </mxCell>
        <mxCell id="0156MINf_T01JMAZHBBm-16" value="" style="edgeStyle=orthogonalEdgeStyle;rounded=0;orthogonalLoop=1;jettySize=auto;html=1;fontSize=25;" edge="1" parent="1" source="0156MINf_T01JMAZHBBm-8" target="0156MINf_T01JMAZHBBm-9">
          <mxGeometry relative="1" as="geometry" />
        </mxCell>
        <mxCell id="0156MINf_T01JMAZHBBm-8" value="Step 1-2" style="ellipse;whiteSpace=wrap;html=1;aspect=fixed;" vertex="1" parent="1">
          <mxGeometry x="200" y="320" width="80" height="80" as="geometry" />
        </mxCell>
        <mxCell id="0156MINf_T01JMAZHBBm-17" value="" style="edgeStyle=orthogonalEdgeStyle;rounded=0;orthogonalLoop=1;jettySize=auto;html=1;fontSize=25;" edge="1" parent="1" source="0156MINf_T01JMAZHBBm-9" target="0156MINf_T01JMAZHBBm-10">
          <mxGeometry relative="1" as="geometry" />
        </mxCell>
        <mxCell id="0156MINf_T01JMAZHBBm-9" value="Step 1-3" style="ellipse;whiteSpace=wrap;html=1;aspect=fixed;" vertex="1" parent="1">
          <mxGeometry x="370" y="320" width="80" height="80" as="geometry" />
        </mxCell>
        <mxCell id="0156MINf_T01JMAZHBBm-10" value="Step2" style="ellipse;whiteSpace=wrap;html=1;aspect=fixed;" vertex="1" parent="1">
          <mxGeometry x="540" y="320" width="80" height="80" as="geometry" />
        </mxCell>
        <mxCell id="0156MINf_T01JMAZHBBm-52" value="" style="shape=partialRectangle;html=1;whiteSpace=wrap;connectable=0;fillColor=none;top=0;left=0;bottom=0;right=0;overflow=hidden;fontSize=25;" vertex="1" parent="1">
          <mxGeometry x="350" y="900" width="60" height="40" as="geometry">
            <mxRectangle width="60" height="40" as="alternateBounds" />
          </mxGeometry>
        </mxCell>
        <mxCell id="0156MINf_T01JMAZHBBm-53" value="" style="shape=partialRectangle;html=1;whiteSpace=wrap;connectable=0;fillColor=none;top=0;left=0;bottom=0;right=0;overflow=hidden;fontSize=25;" vertex="1" parent="1">
          <mxGeometry x="410" y="900" width="60" height="40" as="geometry">
            <mxRectangle width="60" height="40" as="alternateBounds" />
          </mxGeometry>
        </mxCell>
        <mxCell id="0156MINf_T01JMAZHBBm-54" value="" style="shape=partialRectangle;html=1;whiteSpace=wrap;connectable=0;fillColor=none;top=0;left=0;bottom=0;right=0;overflow=hidden;fontSize=25;" vertex="1" parent="1">
          <mxGeometry x="470" y="900" width="60" height="40" as="geometry">
            <mxRectangle width="60" height="40" as="alternateBounds" />
          </mxGeometry>
        </mxCell>
        <mxCell id="0156MINf_T01JMAZHBBm-55" value="" style="shape=table;startSize=0;container=1;collapsible=0;childLayout=tableLayout;fontSize=25;" vertex="1" parent="1">
          <mxGeometry x="840" y="80" width="280" height="360" as="geometry" />
        </mxCell>
        <mxCell id="0156MINf_T01JMAZHBBm-56" value="" style="shape=tableRow;horizontal=0;startSize=0;swimlaneHead=0;swimlaneBody=0;top=0;left=0;bottom=0;right=0;collapsible=0;dropTarget=0;fillColor=none;points=[[0,0.5],[1,0.5]];portConstraint=eastwest;fontSize=25;" vertex="1" parent="0156MINf_T01JMAZHBBm-55">
          <mxGeometry width="280" height="40" as="geometry" />
        </mxCell>
        <mxCell id="0156MINf_T01JMAZHBBm-101" value="KF" style="shape=partialRectangle;html=1;whiteSpace=wrap;connectable=0;overflow=hidden;fillColor=none;top=0;left=0;bottom=0;right=0;pointerEvents=1;fontSize=20;" vertex="1" parent="0156MINf_T01JMAZHBBm-56">
          <mxGeometry width="60" height="40" as="geometry">
            <mxRectangle width="60" height="40" as="alternateBounds" />
          </mxGeometry>
        </mxCell>
        <mxCell id="0156MINf_T01JMAZHBBm-57" value="MES" style="shape=partialRectangle;html=1;whiteSpace=wrap;connectable=0;overflow=hidden;fillColor=none;top=0;left=0;bottom=0;right=0;pointerEvents=1;fontSize=20;" vertex="1" parent="0156MINf_T01JMAZHBBm-56">
          <mxGeometry x="60" width="60" height="40" as="geometry">
            <mxRectangle width="60" height="40" as="alternateBounds" />
          </mxGeometry>
        </mxCell>
        <mxCell id="0156MINf_T01JMAZHBBm-58" value="" style="shape=partialRectangle;html=1;whiteSpace=wrap;connectable=0;overflow=hidden;fillColor=none;top=0;left=0;bottom=0;right=0;pointerEvents=1;fontSize=20;" vertex="1" parent="0156MINf_T01JMAZHBBm-56">
          <mxGeometry x="120" width="100" height="40" as="geometry">
            <mxRectangle width="100" height="40" as="alternateBounds" />
          </mxGeometry>
        </mxCell>
        <mxCell id="0156MINf_T01JMAZHBBm-59" value="" style="shape=partialRectangle;html=1;whiteSpace=wrap;connectable=0;overflow=hidden;fillColor=none;top=0;left=0;bottom=0;right=0;pointerEvents=1;fontSize=25;" vertex="1" parent="0156MINf_T01JMAZHBBm-56">
          <mxGeometry x="220" width="60" height="40" as="geometry">
            <mxRectangle width="60" height="40" as="alternateBounds" />
          </mxGeometry>
        </mxCell>
        <mxCell id="0156MINf_T01JMAZHBBm-61" value="" style="shape=tableRow;horizontal=0;startSize=0;swimlaneHead=0;swimlaneBody=0;top=0;left=0;bottom=0;right=0;collapsible=0;dropTarget=0;fillColor=none;points=[[0,0.5],[1,0.5]];portConstraint=eastwest;fontSize=25;" vertex="1" parent="0156MINf_T01JMAZHBBm-55">
          <mxGeometry y="40" width="280" height="40" as="geometry" />
        </mxCell>
        <mxCell id="0156MINf_T01JMAZHBBm-102" value="1" style="shape=partialRectangle;html=1;whiteSpace=wrap;connectable=0;overflow=hidden;fillColor=none;top=0;left=0;bottom=0;right=0;pointerEvents=1;fontSize=25;" vertex="1" parent="0156MINf_T01JMAZHBBm-61">
          <mxGeometry width="60" height="40" as="geometry">
            <mxRectangle width="60" height="40" as="alternateBounds" />
          </mxGeometry>
        </mxCell>
        <mxCell id="0156MINf_T01JMAZHBBm-62" value="1-1" style="shape=partialRectangle;html=1;whiteSpace=wrap;connectable=0;overflow=hidden;fillColor=none;top=0;left=0;bottom=0;right=0;pointerEvents=1;fontSize=25;" vertex="1" parent="0156MINf_T01JMAZHBBm-61">
          <mxGeometry x="60" width="60" height="40" as="geometry">
            <mxRectangle width="60" height="40" as="alternateBounds" />
          </mxGeometry>
        </mxCell>
        <mxCell id="0156MINf_T01JMAZHBBm-63" value="Start" style="shape=partialRectangle;html=1;whiteSpace=wrap;connectable=0;overflow=hidden;fillColor=none;top=0;left=0;bottom=0;right=0;pointerEvents=1;fontSize=25;" vertex="1" parent="0156MINf_T01JMAZHBBm-61">
          <mxGeometry x="120" width="100" height="40" as="geometry">
            <mxRectangle width="100" height="40" as="alternateBounds" />
          </mxGeometry>
        </mxCell>
        <mxCell id="0156MINf_T01JMAZHBBm-64" value="" style="shape=partialRectangle;html=1;whiteSpace=wrap;connectable=0;overflow=hidden;fillColor=none;top=0;left=0;bottom=0;right=0;pointerEvents=1;fontSize=25;" vertex="1" parent="0156MINf_T01JMAZHBBm-61">
          <mxGeometry x="220" width="60" height="40" as="geometry">
            <mxRectangle width="60" height="40" as="alternateBounds" />
          </mxGeometry>
        </mxCell>
        <mxCell id="0156MINf_T01JMAZHBBm-66" value="" style="shape=tableRow;horizontal=0;startSize=0;swimlaneHead=0;swimlaneBody=0;top=0;left=0;bottom=0;right=0;collapsible=0;dropTarget=0;fillColor=none;points=[[0,0.5],[1,0.5]];portConstraint=eastwest;fontSize=25;" vertex="1" parent="0156MINf_T01JMAZHBBm-55">
          <mxGeometry y="80" width="280" height="40" as="geometry" />
        </mxCell>
        <mxCell id="0156MINf_T01JMAZHBBm-103" value="1" style="shape=partialRectangle;html=1;whiteSpace=wrap;connectable=0;overflow=hidden;fillColor=none;top=0;left=0;bottom=0;right=0;pointerEvents=1;fontSize=25;" vertex="1" parent="0156MINf_T01JMAZHBBm-66">
          <mxGeometry width="60" height="40" as="geometry">
            <mxRectangle width="60" height="40" as="alternateBounds" />
          </mxGeometry>
        </mxCell>
        <mxCell id="0156MINf_T01JMAZHBBm-67" value="1-2" style="shape=partialRectangle;html=1;whiteSpace=wrap;connectable=0;overflow=hidden;fillColor=none;top=0;left=0;bottom=0;right=0;pointerEvents=1;fontSize=25;" vertex="1" parent="0156MINf_T01JMAZHBBm-66">
          <mxGeometry x="60" width="60" height="40" as="geometry">
            <mxRectangle width="60" height="40" as="alternateBounds" />
          </mxGeometry>
        </mxCell>
        <mxCell id="0156MINf_T01JMAZHBBm-68" value="End" style="shape=partialRectangle;html=1;whiteSpace=wrap;connectable=0;overflow=hidden;fillColor=none;top=0;left=0;bottom=0;right=0;pointerEvents=1;fontSize=25;" vertex="1" parent="0156MINf_T01JMAZHBBm-66">
          <mxGeometry x="120" width="100" height="40" as="geometry">
            <mxRectangle width="100" height="40" as="alternateBounds" />
          </mxGeometry>
        </mxCell>
        <mxCell id="0156MINf_T01JMAZHBBm-69" value="" style="shape=partialRectangle;html=1;whiteSpace=wrap;connectable=0;overflow=hidden;fillColor=none;top=0;left=0;bottom=0;right=0;pointerEvents=1;fontSize=25;" vertex="1" parent="0156MINf_T01JMAZHBBm-66">
          <mxGeometry x="220" width="60" height="40" as="geometry">
            <mxRectangle width="60" height="40" as="alternateBounds" />
          </mxGeometry>
        </mxCell>
        <mxCell id="0156MINf_T01JMAZHBBm-71" value="" style="shape=tableRow;horizontal=0;startSize=0;swimlaneHead=0;swimlaneBody=0;top=0;left=0;bottom=0;right=0;collapsible=0;dropTarget=0;fillColor=none;points=[[0,0.5],[1,0.5]];portConstraint=eastwest;fontSize=25;" vertex="1" parent="0156MINf_T01JMAZHBBm-55">
          <mxGeometry y="120" width="280" height="40" as="geometry" />
        </mxCell>
        <mxCell id="0156MINf_T01JMAZHBBm-104" value="1" style="shape=partialRectangle;html=1;whiteSpace=wrap;connectable=0;overflow=hidden;fillColor=none;top=0;left=0;bottom=0;right=0;pointerEvents=1;fontSize=25;" vertex="1" parent="0156MINf_T01JMAZHBBm-71">
          <mxGeometry width="60" height="40" as="geometry">
            <mxRectangle width="60" height="40" as="alternateBounds" />
          </mxGeometry>
        </mxCell>
        <mxCell id="0156MINf_T01JMAZHBBm-72" value="1-3" style="shape=partialRectangle;html=1;whiteSpace=wrap;connectable=0;overflow=hidden;fillColor=none;top=0;left=0;bottom=0;right=0;pointerEvents=1;fontSize=25;" vertex="1" parent="0156MINf_T01JMAZHBBm-71">
          <mxGeometry x="60" width="60" height="40" as="geometry">
            <mxRectangle width="60" height="40" as="alternateBounds" />
          </mxGeometry>
        </mxCell>
        <mxCell id="0156MINf_T01JMAZHBBm-73" value="" style="shape=partialRectangle;html=1;whiteSpace=wrap;connectable=0;overflow=hidden;fillColor=none;top=0;left=0;bottom=0;right=0;pointerEvents=1;fontSize=25;" vertex="1" parent="0156MINf_T01JMAZHBBm-71">
          <mxGeometry x="120" width="100" height="40" as="geometry">
            <mxRectangle width="100" height="40" as="alternateBounds" />
          </mxGeometry>
        </mxCell>
        <mxCell id="0156MINf_T01JMAZHBBm-74" value="" style="shape=partialRectangle;html=1;whiteSpace=wrap;connectable=0;overflow=hidden;fillColor=none;top=0;left=0;bottom=0;right=0;pointerEvents=1;fontSize=25;" vertex="1" parent="0156MINf_T01JMAZHBBm-71">
          <mxGeometry x="220" width="60" height="40" as="geometry">
            <mxRectangle width="60" height="40" as="alternateBounds" />
          </mxGeometry>
        </mxCell>
        <mxCell id="0156MINf_T01JMAZHBBm-76" value="" style="shape=tableRow;horizontal=0;startSize=0;swimlaneHead=0;swimlaneBody=0;top=0;left=0;bottom=0;right=0;collapsible=0;dropTarget=0;fillColor=none;points=[[0,0.5],[1,0.5]];portConstraint=eastwest;fontSize=25;" vertex="1" parent="0156MINf_T01JMAZHBBm-55">
          <mxGeometry y="160" width="280" height="40" as="geometry" />
        </mxCell>
        <mxCell id="0156MINf_T01JMAZHBBm-105" value="2" style="shape=partialRectangle;html=1;whiteSpace=wrap;connectable=0;overflow=hidden;fillColor=none;top=0;left=0;bottom=0;right=0;pointerEvents=1;fontSize=25;" vertex="1" parent="0156MINf_T01JMAZHBBm-76">
          <mxGeometry width="60" height="40" as="geometry">
            <mxRectangle width="60" height="40" as="alternateBounds" />
          </mxGeometry>
        </mxCell>
        <mxCell id="0156MINf_T01JMAZHBBm-77" value="2" style="shape=partialRectangle;html=1;whiteSpace=wrap;connectable=0;overflow=hidden;fillColor=none;top=0;left=0;bottom=0;right=0;pointerEvents=1;fontSize=25;" vertex="1" parent="0156MINf_T01JMAZHBBm-76">
          <mxGeometry x="60" width="60" height="40" as="geometry">
            <mxRectangle width="60" height="40" as="alternateBounds" />
          </mxGeometry>
        </mxCell>
        <mxCell id="0156MINf_T01JMAZHBBm-78" value="" style="shape=partialRectangle;html=1;whiteSpace=wrap;connectable=0;overflow=hidden;fillColor=none;top=0;left=0;bottom=0;right=0;pointerEvents=1;fontSize=25;" vertex="1" parent="0156MINf_T01JMAZHBBm-76">
          <mxGeometry x="120" width="100" height="40" as="geometry">
            <mxRectangle width="100" height="40" as="alternateBounds" />
          </mxGeometry>
        </mxCell>
        <mxCell id="0156MINf_T01JMAZHBBm-79" value="" style="shape=partialRectangle;html=1;whiteSpace=wrap;connectable=0;overflow=hidden;fillColor=none;top=0;left=0;bottom=0;right=0;pointerEvents=1;fontSize=25;" vertex="1" parent="0156MINf_T01JMAZHBBm-76">
          <mxGeometry x="220" width="60" height="40" as="geometry">
            <mxRectangle width="60" height="40" as="alternateBounds" />
          </mxGeometry>
        </mxCell>
        <mxCell id="0156MINf_T01JMAZHBBm-81" value="" style="shape=tableRow;horizontal=0;startSize=0;swimlaneHead=0;swimlaneBody=0;top=0;left=0;bottom=0;right=0;collapsible=0;dropTarget=0;fillColor=none;points=[[0,0.5],[1,0.5]];portConstraint=eastwest;fontSize=25;" vertex="1" parent="0156MINf_T01JMAZHBBm-55">
          <mxGeometry y="200" width="280" height="40" as="geometry" />
        </mxCell>
        <mxCell id="0156MINf_T01JMAZHBBm-106" value="3" style="shape=partialRectangle;html=1;whiteSpace=wrap;connectable=0;overflow=hidden;fillColor=none;top=0;left=0;bottom=0;right=0;pointerEvents=1;fontSize=25;" vertex="1" parent="0156MINf_T01JMAZHBBm-81">
          <mxGeometry width="60" height="40" as="geometry">
            <mxRectangle width="60" height="40" as="alternateBounds" />
          </mxGeometry>
        </mxCell>
        <mxCell id="0156MINf_T01JMAZHBBm-82" value="3" style="shape=partialRectangle;html=1;whiteSpace=wrap;connectable=0;overflow=hidden;fillColor=none;top=0;left=0;bottom=0;right=0;pointerEvents=1;fontSize=25;" vertex="1" parent="0156MINf_T01JMAZHBBm-81">
          <mxGeometry x="60" width="60" height="40" as="geometry">
            <mxRectangle width="60" height="40" as="alternateBounds" />
          </mxGeometry>
        </mxCell>
        <mxCell id="0156MINf_T01JMAZHBBm-83" value="" style="shape=partialRectangle;html=1;whiteSpace=wrap;connectable=0;overflow=hidden;fillColor=none;top=0;left=0;bottom=0;right=0;pointerEvents=1;fontSize=25;" vertex="1" parent="0156MINf_T01JMAZHBBm-81">
          <mxGeometry x="120" width="100" height="40" as="geometry">
            <mxRectangle width="100" height="40" as="alternateBounds" />
          </mxGeometry>
        </mxCell>
        <mxCell id="0156MINf_T01JMAZHBBm-84" value="" style="shape=partialRectangle;html=1;whiteSpace=wrap;connectable=0;overflow=hidden;fillColor=none;top=0;left=0;bottom=0;right=0;pointerEvents=1;fontSize=25;" vertex="1" parent="0156MINf_T01JMAZHBBm-81">
          <mxGeometry x="220" width="60" height="40" as="geometry">
            <mxRectangle width="60" height="40" as="alternateBounds" />
          </mxGeometry>
        </mxCell>
        <mxCell id="0156MINf_T01JMAZHBBm-86" value="" style="shape=tableRow;horizontal=0;startSize=0;swimlaneHead=0;swimlaneBody=0;top=0;left=0;bottom=0;right=0;collapsible=0;dropTarget=0;fillColor=none;points=[[0,0.5],[1,0.5]];portConstraint=eastwest;fontSize=25;" vertex="1" parent="0156MINf_T01JMAZHBBm-55">
          <mxGeometry y="240" width="280" height="40" as="geometry" />
        </mxCell>
        <mxCell id="0156MINf_T01JMAZHBBm-107" style="shape=partialRectangle;html=1;whiteSpace=wrap;connectable=0;overflow=hidden;fillColor=none;top=0;left=0;bottom=0;right=0;pointerEvents=1;fontSize=25;" vertex="1" parent="0156MINf_T01JMAZHBBm-86">
          <mxGeometry width="60" height="40" as="geometry">
            <mxRectangle width="60" height="40" as="alternateBounds" />
          </mxGeometry>
        </mxCell>
        <mxCell id="0156MINf_T01JMAZHBBm-87" value="" style="shape=partialRectangle;html=1;whiteSpace=wrap;connectable=0;overflow=hidden;fillColor=none;top=0;left=0;bottom=0;right=0;pointerEvents=1;fontSize=25;" vertex="1" parent="0156MINf_T01JMAZHBBm-86">
          <mxGeometry x="60" width="60" height="40" as="geometry">
            <mxRectangle width="60" height="40" as="alternateBounds" />
          </mxGeometry>
        </mxCell>
        <mxCell id="0156MINf_T01JMAZHBBm-88" value="" style="shape=partialRectangle;html=1;whiteSpace=wrap;connectable=0;overflow=hidden;fillColor=none;top=0;left=0;bottom=0;right=0;pointerEvents=1;fontSize=25;" vertex="1" parent="0156MINf_T01JMAZHBBm-86">
          <mxGeometry x="120" width="100" height="40" as="geometry">
            <mxRectangle width="100" height="40" as="alternateBounds" />
          </mxGeometry>
        </mxCell>
        <mxCell id="0156MINf_T01JMAZHBBm-89" value="" style="shape=partialRectangle;html=1;whiteSpace=wrap;connectable=0;overflow=hidden;fillColor=none;top=0;left=0;bottom=0;right=0;pointerEvents=1;fontSize=25;" vertex="1" parent="0156MINf_T01JMAZHBBm-86">
          <mxGeometry x="220" width="60" height="40" as="geometry">
            <mxRectangle width="60" height="40" as="alternateBounds" />
          </mxGeometry>
        </mxCell>
        <mxCell id="0156MINf_T01JMAZHBBm-91" value="" style="shape=tableRow;horizontal=0;startSize=0;swimlaneHead=0;swimlaneBody=0;top=0;left=0;bottom=0;right=0;collapsible=0;dropTarget=0;fillColor=none;points=[[0,0.5],[1,0.5]];portConstraint=eastwest;fontSize=25;" vertex="1" parent="0156MINf_T01JMAZHBBm-55">
          <mxGeometry y="280" width="280" height="40" as="geometry" />
        </mxCell>
        <mxCell id="0156MINf_T01JMAZHBBm-108" style="shape=partialRectangle;html=1;whiteSpace=wrap;connectable=0;overflow=hidden;fillColor=none;top=0;left=0;bottom=0;right=0;pointerEvents=1;fontSize=25;" vertex="1" parent="0156MINf_T01JMAZHBBm-91">
          <mxGeometry width="60" height="40" as="geometry">
            <mxRectangle width="60" height="40" as="alternateBounds" />
          </mxGeometry>
        </mxCell>
        <mxCell id="0156MINf_T01JMAZHBBm-92" value="" style="shape=partialRectangle;html=1;whiteSpace=wrap;connectable=0;overflow=hidden;fillColor=none;top=0;left=0;bottom=0;right=0;pointerEvents=1;fontSize=25;" vertex="1" parent="0156MINf_T01JMAZHBBm-91">
          <mxGeometry x="60" width="60" height="40" as="geometry">
            <mxRectangle width="60" height="40" as="alternateBounds" />
          </mxGeometry>
        </mxCell>
        <mxCell id="0156MINf_T01JMAZHBBm-93" value="" style="shape=partialRectangle;html=1;whiteSpace=wrap;connectable=0;overflow=hidden;fillColor=none;top=0;left=0;bottom=0;right=0;pointerEvents=1;fontSize=25;" vertex="1" parent="0156MINf_T01JMAZHBBm-91">
          <mxGeometry x="120" width="100" height="40" as="geometry">
            <mxRectangle width="100" height="40" as="alternateBounds" />
          </mxGeometry>
        </mxCell>
        <mxCell id="0156MINf_T01JMAZHBBm-94" value="" style="shape=partialRectangle;html=1;whiteSpace=wrap;connectable=0;overflow=hidden;fillColor=none;top=0;left=0;bottom=0;right=0;pointerEvents=1;fontSize=25;" vertex="1" parent="0156MINf_T01JMAZHBBm-91">
          <mxGeometry x="220" width="60" height="40" as="geometry">
            <mxRectangle width="60" height="40" as="alternateBounds" />
          </mxGeometry>
        </mxCell>
        <mxCell id="0156MINf_T01JMAZHBBm-96" value="" style="shape=tableRow;horizontal=0;startSize=0;swimlaneHead=0;swimlaneBody=0;top=0;left=0;bottom=0;right=0;collapsible=0;dropTarget=0;fillColor=none;points=[[0,0.5],[1,0.5]];portConstraint=eastwest;fontSize=25;" vertex="1" parent="0156MINf_T01JMAZHBBm-55">
          <mxGeometry y="320" width="280" height="40" as="geometry" />
        </mxCell>
        <mxCell id="0156MINf_T01JMAZHBBm-109" style="shape=partialRectangle;html=1;whiteSpace=wrap;connectable=0;overflow=hidden;fillColor=none;top=0;left=0;bottom=0;right=0;pointerEvents=1;fontSize=25;" vertex="1" parent="0156MINf_T01JMAZHBBm-96">
          <mxGeometry width="60" height="40" as="geometry">
            <mxRectangle width="60" height="40" as="alternateBounds" />
          </mxGeometry>
        </mxCell>
        <mxCell id="0156MINf_T01JMAZHBBm-97" value="" style="shape=partialRectangle;html=1;whiteSpace=wrap;connectable=0;overflow=hidden;fillColor=none;top=0;left=0;bottom=0;right=0;pointerEvents=1;fontSize=25;" vertex="1" parent="0156MINf_T01JMAZHBBm-96">
          <mxGeometry x="60" width="60" height="40" as="geometry">
            <mxRectangle width="60" height="40" as="alternateBounds" />
          </mxGeometry>
        </mxCell>
        <mxCell id="0156MINf_T01JMAZHBBm-98" value="" style="shape=partialRectangle;html=1;whiteSpace=wrap;connectable=0;overflow=hidden;fillColor=none;top=0;left=0;bottom=0;right=0;pointerEvents=1;fontSize=25;" vertex="1" parent="0156MINf_T01JMAZHBBm-96">
          <mxGeometry x="120" width="100" height="40" as="geometry">
            <mxRectangle width="100" height="40" as="alternateBounds" />
          </mxGeometry>
        </mxCell>
        <mxCell id="0156MINf_T01JMAZHBBm-99" value="" style="shape=partialRectangle;html=1;whiteSpace=wrap;connectable=0;overflow=hidden;fillColor=none;top=0;left=0;bottom=0;right=0;pointerEvents=1;fontSize=25;" vertex="1" parent="0156MINf_T01JMAZHBBm-96">
          <mxGeometry x="220" width="60" height="40" as="geometry">
            <mxRectangle width="60" height="40" as="alternateBounds" />
          </mxGeometry>
        </mxCell>
        <mxCell id="0156MINf_T01JMAZHBBm-110" value="" style="shape=partialRectangle;html=1;whiteSpace=wrap;connectable=0;fillColor=none;top=0;left=0;bottom=0;right=0;overflow=hidden;fontSize=25;" vertex="1" parent="1">
          <mxGeometry x="370" y="880" width="60" height="40" as="geometry">
            <mxRectangle width="60" height="40" as="alternateBounds" />
          </mxGeometry>
        </mxCell>
        <mxCell id="0156MINf_T01JMAZHBBm-111" value="" style="shape=partialRectangle;html=1;whiteSpace=wrap;connectable=0;fillColor=none;top=0;left=0;bottom=0;right=0;overflow=hidden;fontSize=25;" vertex="1" parent="1">
          <mxGeometry x="430" y="880" width="60" height="40" as="geometry">
            <mxRectangle width="60" height="40" as="alternateBounds" />
          </mxGeometry>
        </mxCell>
        <mxCell id="0156MINf_T01JMAZHBBm-112" value="" style="shape=partialRectangle;html=1;whiteSpace=wrap;connectable=0;fillColor=none;top=0;left=0;bottom=0;right=0;overflow=hidden;fontSize=25;" vertex="1" parent="1">
          <mxGeometry x="490" y="880" width="60" height="40" as="geometry">
            <mxRectangle width="60" height="40" as="alternateBounds" />
          </mxGeometry>
        </mxCell>
        <mxCell id="0156MINf_T01JMAZHBBm-114" value="" style="endArrow=classic;html=1;rounded=0;fontSize=20;curved=1;entryX=0.5;entryY=1;entryDx=0;entryDy=0;" edge="1" parent="1" target="0156MINf_T01JMAZHBBm-1">
          <mxGeometry width="50" height="50" relative="1" as="geometry">
            <mxPoint x="160" y="240" as="sourcePoint" />
            <mxPoint x="450" y="210" as="targetPoint" />
          </mxGeometry>
        </mxCell>
        <mxCell id="0156MINf_T01JMAZHBBm-115" value="" style="endArrow=none;html=1;rounded=0;fontSize=20;curved=1;exitX=0.5;exitY=1;exitDx=0;exitDy=0;endFill=0;" edge="1" parent="1" source="0156MINf_T01JMAZHBBm-2">
          <mxGeometry width="50" height="50" relative="1" as="geometry">
            <mxPoint x="400" y="260" as="sourcePoint" />
            <mxPoint x="160" y="240" as="targetPoint" />
          </mxGeometry>
        </mxCell>
        <mxCell id="0156MINf_T01JMAZHBBm-116" value="" style="endArrow=classic;html=1;rounded=0;fontSize=20;curved=1;entryX=0.5;entryY=1;entryDx=0;entryDy=0;" edge="1" parent="1">
          <mxGeometry width="50" height="50" relative="1" as="geometry">
            <mxPoint x="320" y="480" as="sourcePoint" />
            <mxPoint x="80" y="400" as="targetPoint" />
          </mxGeometry>
        </mxCell>
        <mxCell id="0156MINf_T01JMAZHBBm-117" value="" style="endArrow=none;html=1;rounded=0;fontSize=20;curved=1;exitX=0.5;exitY=1;exitDx=0;exitDy=0;endFill=0;" edge="1" parent="1" source="0156MINf_T01JMAZHBBm-10">
          <mxGeometry width="50" height="50" relative="1" as="geometry">
            <mxPoint x="240" y="400" as="sourcePoint" />
            <mxPoint x="320" y="480" as="targetPoint" />
          </mxGeometry>
        </mxCell>
        <mxCell id="0156MINf_T01JMAZHBBm-119" value="" style="endArrow=classic;html=1;rounded=0;fontSize=20;curved=1;entryX=0;entryY=0.5;entryDx=0;entryDy=0;" edge="1" parent="1" target="0156MINf_T01JMAZHBBm-3">
          <mxGeometry width="50" height="50" relative="1" as="geometry">
            <mxPoint x="280" y="120" as="sourcePoint" />
            <mxPoint x="330" y="70" as="targetPoint" />
          </mxGeometry>
        </mxCell>
        <mxCell id="0156MINf_T01JMAZHBBm-120" value="Step 3" style="ellipse;whiteSpace=wrap;html=1;aspect=fixed;" vertex="1" parent="1">
          <mxGeometry x="360" width="80" height="80" as="geometry" />
        </mxCell>
        <mxCell id="0156MINf_T01JMAZHBBm-121" value="" style="endArrow=classic;html=1;rounded=0;fontSize=20;curved=1;entryX=0;entryY=0.5;entryDx=0;entryDy=0;" edge="1" parent="1" target="0156MINf_T01JMAZHBBm-120">
          <mxGeometry width="50" height="50" relative="1" as="geometry">
            <mxPoint x="280" y="120" as="sourcePoint" />
            <mxPoint x="340" y="80" as="targetPoint" />
          </mxGeometry>
        </mxCell>
        <mxCell id="0156MINf_T01JMAZHBBm-122" value="Step 4" style="ellipse;whiteSpace=wrap;html=1;aspect=fixed;" vertex="1" parent="1">
          <mxGeometry x="700" y="400" width="80" height="80" as="geometry" />
        </mxCell>
        <mxCell id="0156MINf_T01JMAZHBBm-123" value="" style="endArrow=classic;html=1;rounded=0;fontSize=20;curved=1;entryX=0;entryY=0.5;entryDx=0;entryDy=0;" edge="1" parent="1" target="0156MINf_T01JMAZHBBm-122">
          <mxGeometry width="50" height="50" relative="1" as="geometry">
            <mxPoint x="620" y="360" as="sourcePoint" />
            <mxPoint x="670" y="310" as="targetPoint" />
          </mxGeometry>
        </mxCell>
        <mxCell id="0156MINf_T01JMAZHBBm-124" value="Step 3" style="ellipse;whiteSpace=wrap;html=1;aspect=fixed;" vertex="1" parent="1">
          <mxGeometry x="700" y="240" width="80" height="80" as="geometry" />
        </mxCell>
        <mxCell id="0156MINf_T01JMAZHBBm-125" value="" style="endArrow=classic;html=1;rounded=0;fontSize=20;curved=1;entryX=0;entryY=0.5;entryDx=0;entryDy=0;" edge="1" parent="1" target="0156MINf_T01JMAZHBBm-124">
          <mxGeometry width="50" height="50" relative="1" as="geometry">
            <mxPoint x="620" y="360" as="sourcePoint" />
            <mxPoint x="680" y="320" as="targetPoint" />
          </mxGeometry>
        </mxCell>
      </root>
    </mxGraphModel>
  </diagram>
</mxfile>
